<svg id="Component_3_1" data-name="Component 3 – 1" xmlns="http://www.w3.org/2000/svg" width="204" height="63.496" viewBox="0 0 204 63.496">
  <path id="Path_1" data-name="Path 1" d="M157.267,38.643V65.734h-6.635V38.643h-6.088V32.829h6.088V27.288c0-7.32,4.858-11.288,10.808-11.288a8.317,8.317,0,0,1,3.832.683v5.748a7.4,7.4,0,0,0-2.8-.411c-2.257,0-5.2,1.095-5.2,5.61v5.2H165.2v5.814Z" transform="translate(-42.509 -16)"/>
  <path id="Path_2" data-name="Path 2" d="M244.653,53.346,232.817,37.2h7.8l8.073,11.562L256.624,37.2h7.594l-11.7,16.145c1.984,2.668,10.124,14.092,12.108,16.76H256.9L248.415,58l-8.346,12.108h-7.662Z" transform="translate(-60.629 -20.372)"/>
  <path id="Path_3" data-name="Path 3" d="M132.74,51.99a1.108,1.108,0,0,0,1.108,1.108h2.107a3.216,3.216,0,0,1,3.215,3.216h0V69.858h-6.43V56.313h0a6.43,6.43,0,0,1-6.43-6.43H126.3c-.057-4.487-2-8.073-7.656-8.073-5.063,0-7.662,4.036-7.662,9.03V69.858h-6.43V36.953h6.294v4.72a11.269,11.269,0,0,1,10.125-5.678c7.867,0,11.767,5.678,11.767,13v3Z" transform="translate(-34.262 -20.123)"/>
  <path id="Path_4" data-name="Path 4" d="M139.948,61.574v0" transform="translate(-41.561 -25.399)"/>
  <path id="Path_5" data-name="Path 5" d="M55.282,52.1a3.09,3.09,0,0,0-3.08-3.075h-2.74a1.416,1.416,0,0,1-1.338-.962c-1.56-4.544-5.66-7.862-11.875-9.232L29,37.261c-4.1-.889-6.226-3.557-6.226-7.046,0-4.514,3.9-8.073,9.372-8.073,6.772,0,9.714,4.79,10.262,8.278l6.02-2.121c-1.095-5.267-5.472-12.04-16.418-12.04C23.046,16.259,16,23.1,16,30.694c0,7.251,4.925,11.766,11.835,13.271,6.634,1.145,9.724.714,13.354,1.5A9.526,9.526,0,0,1,47.2,49.028a6.828,6.828,0,0,1,1.236,3.967c0,4.242-3.284,7.731-9.988,7.731-7.32,0-11.151-4.994-11.63-10.4l-6.43,2.053c.889,6.909,6.43,14.435,18.128,14.435,10.33,0,16.761-6.842,16.761-14.367Z" transform="translate(-16 -16.053)"/>
  <path id="Path_6" data-name="Path 6" d="M181.138,49.028V16.259h-6.43V65.788h6.43Z" transform="translate(-48.73 -16.053)"/>
  <path id="Path_7" data-name="Path 7" d="M221.748,70.106a55.451,55.451,0,0,1-.341-6.088V37.2h-6.43V57.04c0,4.994-2.6,8.416-7.8,8.416-5.4,0-7.458-3.969-7.458-8.483v-.41a3.215,3.215,0,0,0-3.215-3.216H194.4a1.108,1.108,0,0,1-1.109-1.108V37.2h-6.43V50.132a6.43,6.43,0,0,0,6.43,6.43V57.93c0,7.456,4.652,13.2,12.314,13.2,3.831,0,7.935-1.574,9.714-4.994a29.171,29.171,0,0,0,.274,3.967h6.156Z" transform="translate(-51.236 -20.372)"/>
  <path id="Path_8" data-name="Path 8" d="M85.115,37.216V53.361l-2.848,6.567-1.74-3.85a4.618,4.618,0,0,0-4.209-2.717H73.339a1.417,1.417,0,0,1-1.291-.833L65.13,37.216H57.742L65.55,53.361l.294.607A4.62,4.62,0,0,0,70,56.577H73.98l4.8,9.919L70.568,83.872h7.046l14-30.51V37.216Z" transform="translate(-24.608 -20.375)"/>
</svg>
