<?xml version="1.0" standalone="no"?>
<!DOCTYPE svg PUBLIC "-//W3C//DTD SVG 20010904//EN"
 "http://www.w3.org/TR/2001/REC-SVG-20010904/DTD/svg10.dtd">
<svg version="1.0" xmlns="http://www.w3.org/2000/svg"
 width="1180.000000pt" height="1180.000000pt" viewBox="0 0 1180.000000 1180.000000"
 preserveAspectRatio="xMidYMid meet">
<metadata>
Created by potrace 1.11, written by Peter Selinger 2001-2013
</metadata>
<g transform="translate(0.000000,1180.000000) scale(0.100000,-0.100000)"
fill="#000000" stroke="none">
<path d="M10450 10723 c-14 -3 -29 -9 -34 -14 -6 -5 -54 -9 -108 -9 -65 0
-111 -5 -135 -15 -19 -8 -50 -15 -67 -15 -18 0 -41 -7 -52 -15 -10 -8 -37 -15
-59 -15 -22 0 -53 -7 -69 -15 -15 -8 -36 -15 -46 -15 -10 0 -25 -7 -34 -15 -8
-8 -21 -15 -29 -15 -8 0 -20 -7 -27 -15 -7 -8 -21 -15 -32 -15 -19 0 -75 -21
-108 -40 -8 -5 -39 -21 -67 -35 -29 -14 -53 -29 -53 -34 0 -5 -8 -11 -17 -15
-22 -7 -46 -22 -94 -58 -20 -16 -40 -28 -43 -28 -14 0 -146 -106 -146 -117 0
-7 -12 -20 -27 -30 -16 -10 -37 -26 -49 -38 -11 -11 -29 -25 -39 -31 -10 -6
-23 -19 -29 -29 -6 -10 -23 -30 -38 -43 -16 -13 -28 -28 -28 -34 0 -5 -20 -30
-45 -55 -25 -24 -45 -50 -45 -58 0 -7 -7 -15 -15 -19 -8 -3 -15 -14 -15 -24 0
-11 -7 -25 -15 -32 -8 -7 -15 -18 -15 -25 0 -8 -4 -15 -8 -17 -13 -5 -52 -74
-52 -91 0 -8 -7 -17 -15 -21 -8 -3 -15 -15 -15 -26 0 -11 -7 -23 -15 -26 -8
-4 -15 -13 -15 -21 0 -8 -7 -21 -15 -29 -8 -9 -15 -30 -15 -48 0 -19 -7 -39
-15 -46 -8 -7 -15 -20 -15 -29 0 -10 -7 -26 -15 -37 -8 -10 -15 -31 -15 -45 0
-14 -7 -34 -15 -45 -8 -10 -15 -35 -15 -54 0 -20 -5 -41 -12 -48 -6 -6 -15
-33 -19 -59 -4 -27 -15 -75 -24 -108 -50 -182 -58 -313 -62 -1007 l-4 -648
-582 0 c-349 0 -588 -4 -597 -10 -13 -8 -15 -85 -18 -570 l-3 -560 25 -25 25
-25 576 0 575 0 0 -2645 0 -2644 22 -21 c21 -20 32 -20 663 -20 631 0 642 0
663 20 l22 21 0 2644 0 2645 755 0 756 0 24 25 25 24 0 559 c0 421 -3 561 -12
570 -9 9 -196 12 -780 12 l-768 0 3 623 c3 679 7 738 58 840 16 31 29 65 29
75 0 9 7 26 15 36 8 11 15 26 15 34 0 7 7 20 15 28 8 9 15 24 15 35 0 10 4 19
9 19 5 0 14 14 20 30 5 17 15 30 20 30 6 0 23 14 38 32 16 18 43 46 61 62 17
16 32 35 32 42 0 6 11 15 25 18 14 4 25 11 25 16 0 6 7 10 15 10 9 0 18 7 21
15 4 8 13 15 22 15 19 0 100 38 108 51 3 5 13 9 23 9 10 0 41 6 67 14 190 56
224 61 404 60 133 0 189 -5 230 -17 30 -10 80 -21 110 -26 30 -6 76 -15 101
-22 86 -22 79 -73 79 585 l0 584 -40 21 c-22 12 -53 21 -69 21 -16 0 -34 7
-41 15 -7 8 -29 15 -49 15 -20 0 -43 6 -49 12 -8 8 -54 14 -130 16 -68 3 -123
9 -131 16 -14 11 -428 19 -481 9z"/>
<path d="M3105 10688 c-38 -4 -113 -11 -166 -15 -53 -5 -102 -13 -110 -19 -8
-7 -58 -14 -111 -16 -58 -2 -103 -9 -110 -16 -7 -7 -30 -12 -53 -12 -23 0 -50
-7 -61 -15 -10 -8 -28 -15 -40 -15 -11 0 -29 -7 -40 -15 -10 -8 -35 -15 -54
-15 -19 0 -48 -7 -64 -15 -15 -8 -38 -15 -50 -15 -12 0 -31 -7 -42 -15 -10 -8
-30 -15 -42 -15 -13 0 -36 -6 -50 -14 -15 -7 -56 -27 -92 -43 -69 -32 -165
-76 -242 -112 -27 -12 -48 -27 -48 -32 0 -5 -11 -9 -25 -9 -14 0 -28 -7 -31
-15 -4 -8 -14 -15 -23 -15 -9 0 -31 -13 -49 -30 -18 -16 -39 -30 -47 -30 -8 0
-17 -5 -20 -11 -4 -5 -17 -15 -28 -20 -12 -5 -35 -18 -52 -29 -16 -11 -40 -25
-52 -31 -13 -7 -23 -16 -23 -21 0 -4 -6 -8 -13 -8 -7 0 -24 -13 -37 -30 -14
-16 -28 -29 -33 -30 -12 0 -107 -73 -107 -82 0 -4 -4 -8 -9 -8 -15 0 -81 -63
-81 -77 0 -7 -6 -13 -14 -13 -8 0 -47 -33 -88 -73 -40 -40 -81 -76 -90 -80
-10 -3 -18 -12 -18 -19 0 -8 -14 -28 -30 -46 -17 -18 -30 -35 -30 -38 0 -3
-12 -16 -27 -30 -24 -22 -40 -45 -59 -83 -9 -17 -42 -51 -50 -51 -10 0 -43
-44 -44 -57 0 -7 -3 -13 -8 -13 -4 0 -19 -21 -32 -47 -14 -27 -37 -61 -52 -77
-16 -17 -28 -38 -28 -47 0 -10 -13 -33 -30 -51 -16 -18 -30 -40 -30 -49 0 -9
-7 -22 -15 -29 -8 -7 -15 -23 -15 -35 0 -13 -4 -25 -8 -27 -14 -6 -52 -88 -52
-112 0 -13 -7 -26 -15 -30 -8 -3 -15 -14 -15 -24 0 -11 -7 -25 -15 -32 -8 -7
-15 -22 -15 -34 0 -11 -7 -30 -15 -40 -8 -11 -15 -34 -15 -52 0 -17 -7 -37
-15 -44 -8 -7 -15 -23 -15 -35 0 -13 -7 -36 -15 -51 -8 -16 -15 -48 -15 -70 0
-23 -7 -55 -15 -70 -8 -16 -15 -45 -15 -64 0 -19 -7 -53 -15 -75 -11 -32 -14
-118 -14 -445 0 -327 3 -413 14 -445 8 -22 15 -56 15 -75 0 -19 7 -48 15 -64
8 -15 15 -49 15 -75 0 -26 7 -56 15 -67 8 -10 15 -33 15 -50 0 -17 7 -37 15
-44 9 -7 15 -29 15 -51 0 -20 7 -44 15 -53 8 -8 15 -26 15 -40 0 -13 7 -31 15
-40 8 -8 15 -19 15 -24 0 -5 7 -15 15 -22 8 -7 15 -21 15 -32 0 -18 14 -49 41
-98 5 -8 12 -22 15 -30 3 -8 10 -22 15 -30 5 -8 12 -22 16 -30 3 -8 19 -31 35
-51 15 -20 28 -45 28 -56 0 -10 13 -30 30 -43 16 -14 29 -30 30 -36 0 -6 13
-27 30 -45 16 -19 30 -38 30 -43 0 -5 28 -39 63 -75 34 -37 89 -97 122 -134
33 -37 79 -81 102 -98 24 -16 43 -36 43 -42 0 -14 93 -87 110 -87 5 0 10 -4
10 -9 0 -4 28 -26 63 -49 34 -22 72 -52 84 -66 13 -14 32 -26 43 -26 11 0 20
-4 20 -9 0 -5 14 -14 30 -20 17 -5 30 -14 30 -18 0 -4 19 -17 43 -28 23 -11
48 -26 55 -32 7 -7 22 -13 31 -13 10 0 24 -7 31 -15 7 -8 20 -15 30 -15 10 0
23 -7 30 -15 7 -8 18 -15 25 -15 7 0 18 -7 25 -15 7 -8 20 -15 30 -15 10 0 23
-7 30 -15 7 -8 25 -15 40 -15 15 0 33 -7 40 -15 7 -8 20 -15 29 -15 9 0 25 -7
35 -15 11 -8 34 -15 52 -15 18 0 35 -4 38 -9 6 -9 30 -21 129 -64 21 -9 49
-17 62 -17 14 0 33 -4 43 -9 30 -17 154 -51 184 -51 15 0 36 -4 46 -10 16 -9
69 -22 162 -40 25 -5 70 -9 101 -9 31 -1 73 -8 92 -16 20 -8 58 -15 85 -15 26
0 54 -6 60 -12 7 -7 52 -16 100 -20 48 -4 114 -12 147 -17 33 -5 107 -10 166
-10 65 -1 109 -5 117 -13 6 -6 72 -15 159 -20 81 -4 184 -12 228 -17 44 -5
172 -10 286 -10 138 -1 209 -5 216 -12 7 -7 61 -14 130 -16 71 -3 131 -10 150
-19 18 -8 63 -14 110 -14 46 0 84 -5 90 -11 7 -7 62 -14 132 -17 85 -3 124 -9
132 -18 6 -8 30 -14 53 -14 22 0 50 -7 60 -15 11 -9 42 -15 70 -15 29 0 59 -7
70 -15 11 -8 29 -15 40 -15 12 0 30 -7 40 -15 11 -8 33 -15 48 -15 16 0 45
-11 66 -24 20 -12 48 -27 62 -31 14 -4 34 -14 45 -21 11 -8 29 -14 41 -14 12
0 27 -7 34 -15 7 -8 18 -15 25 -15 7 0 18 -7 25 -15 7 -8 25 -15 40 -15 15 0
30 -6 33 -14 3 -7 26 -24 52 -36 25 -12 53 -33 62 -46 8 -13 22 -24 29 -24 8
0 14 -4 14 -9 0 -5 9 -12 20 -16 43 -14 270 -237 270 -266 0 -5 4 -9 9 -9 5 0
19 -20 31 -45 12 -25 35 -59 51 -74 16 -16 29 -34 29 -40 0 -6 14 -37 30 -68
17 -31 30 -63 30 -72 0 -9 7 -29 15 -45 8 -15 15 -36 15 -45 0 -9 7 -25 15
-35 8 -11 15 -29 15 -41 0 -11 7 -31 16 -44 15 -20 17 -60 17 -296 0 -236 -2
-276 -17 -296 -9 -13 -16 -33 -16 -45 0 -12 -6 -35 -14 -51 -30 -61 -46 -105
-46 -128 0 -14 -13 -47 -30 -73 -16 -27 -30 -56 -30 -65 0 -8 -3 -17 -7 -19
-5 -1 -26 -30 -48 -63 -47 -70 -54 -80 -77 -106 -10 -10 -18 -23 -18 -28 0 -5
-7 -11 -15 -15 -8 -3 -15 -11 -15 -18 0 -7 -28 -38 -61 -68 -34 -30 -82 -74
-106 -98 -25 -24 -55 -48 -67 -53 -11 -5 -34 -18 -51 -29 -16 -11 -40 -25 -52
-31 -13 -7 -23 -16 -23 -21 0 -4 -7 -8 -15 -8 -17 0 -99 -41 -103 -52 -2 -4
-9 -8 -17 -8 -7 0 -18 -7 -25 -15 -7 -8 -22 -15 -34 -15 -12 0 -31 -7 -42 -15
-10 -8 -31 -15 -45 -15 -15 0 -32 -6 -38 -14 -6 -8 -36 -17 -66 -21 -30 -3
-57 -11 -60 -16 -4 -5 -18 -9 -33 -9 -15 0 -40 -7 -55 -15 -15 -8 -45 -17 -65
-21 -20 -4 -41 -10 -47 -14 -5 -4 -53 -10 -105 -14 -52 -3 -113 -11 -135 -18
-67 -20 -609 -16 -719 5 -49 9 -113 17 -142 17 -29 0 -55 4 -58 9 -3 5 -21 12
-40 15 -20 4 -48 13 -63 21 -15 8 -39 15 -53 15 -14 1 -36 7 -50 15 -14 8 -37
14 -51 15 -15 0 -40 7 -55 15 -16 8 -36 15 -44 15 -8 0 -24 7 -34 15 -11 8
-30 15 -42 15 -12 0 -27 7 -34 15 -7 8 -21 15 -31 15 -11 0 -19 4 -19 10 0 5
-12 13 -27 16 -15 4 -34 13 -41 21 -7 7 -22 13 -32 13 -10 0 -20 7 -24 15 -3
8 -16 15 -30 15 -13 0 -26 7 -30 15 -3 8 -17 15 -31 15 -16 0 -25 6 -25 15 0
8 -5 15 -10 15 -12 0 -17 4 -76 54 -23 20 -47 36 -53 36 -6 0 -11 3 -11 8 0 4
-34 34 -75 67 -41 33 -78 68 -81 77 -3 10 -16 21 -29 24 -13 3 -25 12 -27 18
-3 15 -68 95 -115 143 -18 19 -33 37 -33 42 0 5 -13 24 -30 42 -16 19 -30 39
-30 46 0 6 -6 18 -13 25 -13 13 -39 58 -52 88 -6 16 -17 34 -58 97 -15 24 -27
47 -27 52 0 14 -40 90 -51 97 -5 3 -9 17 -9 31 0 13 -6 37 -14 51 -28 56 -56
120 -56 131 0 6 -4 11 -10 11 -5 0 -10 22 -10 48 0 27 -6 57 -15 68 -8 10 -15
38 -15 61 0 23 -6 48 -14 55 -9 9 -15 51 -18 128 -8 159 -28 196 -91 165 -16
-8 -40 -15 -52 -15 -11 0 -30 -7 -41 -15 -10 -8 -33 -15 -50 -15 -16 0 -39 -7
-50 -15 -10 -8 -33 -15 -50 -15 -17 0 -37 -7 -44 -15 -7 -8 -20 -15 -30 -15
-10 0 -23 -7 -30 -15 -8 -9 -30 -15 -59 -15 -26 0 -56 -7 -67 -15 -10 -8 -31
-15 -45 -15 -15 0 -32 -7 -39 -15 -7 -9 -29 -15 -54 -15 -23 0 -51 -7 -62 -15
-10 -8 -31 -15 -45 -15 -14 0 -34 -7 -45 -15 -10 -8 -32 -15 -49 -15 -16 0
-43 -7 -59 -15 -15 -8 -38 -15 -50 -15 -12 0 -30 -6 -41 -14 -11 -7 -32 -16
-47 -20 -16 -3 -28 -11 -28 -16 0 -6 -17 -10 -37 -10 -21 0 -51 -7 -67 -15
-15 -8 -36 -15 -45 -15 -10 0 -28 -11 -40 -24 -22 -23 -23 -30 -16 -93 4 -37
10 -72 15 -78 4 -5 10 -37 13 -69 3 -32 11 -64 16 -69 6 -6 11 -20 11 -31 0
-12 6 -33 14 -47 7 -14 17 -51 20 -82 4 -31 12 -59 17 -62 5 -4 9 -16 9 -28 0
-12 7 -35 15 -51 8 -15 15 -37 15 -48 0 -11 7 -36 16 -56 40 -95 57 -138 72
-187 6 -20 14 -32 45 -66 9 -10 17 -30 17 -43 0 -13 7 -29 15 -36 8 -7 15 -21
15 -32 0 -10 7 -21 15 -24 8 -4 15 -15 15 -26 0 -21 38 -90 52 -96 4 -2 8 -15
8 -28 0 -14 7 -27 15 -30 8 -4 15 -12 15 -19 0 -8 14 -27 30 -43 16 -17 30
-35 30 -40 0 -5 7 -15 15 -22 8 -7 15 -21 15 -32 0 -10 7 -21 15 -24 8 -4 15
-11 15 -18 0 -6 20 -34 45 -63 25 -28 45 -54 45 -58 0 -11 81 -104 163 -187
42 -44 77 -83 77 -89 0 -5 7 -9 15 -9 8 0 15 -4 15 -10 0 -11 36 -50 46 -50 4
0 28 -21 53 -47 55 -56 137 -125 160 -135 9 -3 31 -22 49 -41 18 -20 41 -39
52 -42 11 -4 35 -20 52 -36 18 -16 39 -29 46 -29 8 0 31 -14 52 -30 21 -17 43
-30 50 -30 7 0 29 -14 50 -30 21 -17 43 -30 49 -30 6 0 11 -4 11 -10 0 -5 12
-13 28 -16 15 -4 29 -10 32 -14 12 -16 79 -50 98 -50 11 0 24 -4 27 -10 7 -12
92 -50 112 -50 7 0 26 -11 41 -25 15 -14 38 -28 52 -31 14 -3 39 -12 57 -20
17 -8 42 -14 55 -14 12 0 32 -7 42 -15 11 -8 27 -15 37 -15 9 0 30 -7 45 -15
16 -8 43 -15 59 -15 17 0 39 -7 49 -15 11 -8 31 -15 44 -15 13 0 30 -7 38 -15
9 -8 32 -15 53 -15 20 0 42 -5 48 -11 6 -6 45 -14 85 -16 40 -3 87 -11 105
-19 17 -8 48 -14 70 -14 21 0 56 -7 78 -15 27 -9 84 -14 175 -15 95 0 140 -4
149 -13 17 -17 808 -18 819 -1 4 8 59 13 154 15 99 3 151 8 160 17 6 6 32 12
58 12 25 0 58 7 74 15 15 8 50 15 77 15 28 0 66 7 86 15 19 8 45 15 57 15 12
0 31 7 42 15 10 8 28 15 40 15 11 0 29 7 40 15 10 8 35 15 55 15 19 0 44 7 55
15 10 8 28 15 40 15 11 0 29 7 40 15 10 8 30 15 42 15 13 0 36 6 50 14 15 7
48 23 74 35 26 12 50 26 53 32 4 5 17 9 30 9 13 0 30 6 37 14 8 7 24 17 36 20
12 4 22 12 22 17 0 5 13 9 29 9 16 0 33 6 39 13 6 6 41 28 79 47 37 19 79 47
93 62 13 16 30 28 38 28 14 0 75 40 80 53 2 4 14 7 26 7 12 0 36 14 54 30 18
17 36 30 40 30 4 0 30 21 59 48 60 55 80 72 87 72 12 0 106 94 106 106 0 8 6
14 14 14 7 0 53 43 102 96 49 53 107 115 129 138 63 65 115 133 115 150 0 9 3
16 8 16 14 0 138 193 171 267 5 11 15 24 20 28 6 3 11 17 11 29 0 13 7 29 15
36 8 7 15 20 15 30 0 10 7 20 15 24 8 3 15 12 15 19 0 8 7 20 15 27 8 7 15 28
15 46 0 19 4 34 10 34 5 0 13 12 16 28 4 15 13 36 20 47 8 11 14 32 14 47 0
15 4 29 9 32 5 4 12 25 16 49 4 23 14 51 21 62 8 11 14 30 14 43 0 25 26 116
41 144 5 10 13 46 19 80 5 35 14 90 19 123 6 33 11 174 11 313 0 270 1 263
-53 370 -12 23 -25 42 -29 42 -5 0 -8 6 -8 14 0 16 -91 145 -102 146 -4 0 -21
13 -38 30 -17 16 -40 30 -50 30 -11 0 -20 4 -20 9 0 14 -78 51 -108 51 -15 0
-36 7 -46 15 -11 8 -32 15 -46 15 -14 0 -32 6 -38 12 -10 10 -100 14 -364 16
-289 3 -353 6 -365 18 -8 8 -21 14 -28 14 -18 0 -85 66 -85 84 0 8 -7 19 -15
26 -8 7 -15 21 -15 31 0 9 -6 24 -13 31 -8 7 -17 31 -20 53 -4 22 -11 41 -17
43 -5 2 -10 14 -10 27 0 12 -7 28 -15 35 -8 7 -15 22 -15 34 -1 11 -12 39 -25
61 -14 22 -30 50 -37 63 -6 12 -15 22 -20 22 -4 0 -8 8 -8 18 0 11 -13 38 -30
60 -16 23 -30 45 -30 48 0 4 -12 23 -27 43 -16 19 -30 44 -33 54 -3 9 -24 39
-48 65 -23 26 -64 76 -91 112 -26 36 -57 70 -68 75 -11 6 -33 26 -49 45 -48
60 -162 170 -176 170 -7 0 -22 14 -33 30 -11 16 -23 30 -27 30 -5 0 -16 8 -26
18 -39 37 -86 72 -99 72 -7 0 -13 5 -13 10 0 6 -6 10 -13 10 -8 0 -22 9 -32
20 -10 11 -23 20 -29 20 -6 0 -24 14 -40 30 -16 17 -37 30 -47 30 -9 0 -19 7
-23 15 -3 8 -14 15 -25 15 -11 0 -32 11 -47 25 -15 14 -39 28 -53 32 -14 3
-32 12 -39 20 -7 7 -20 13 -28 13 -9 0 -22 7 -30 15 -9 8 -26 15 -39 15 -13 0
-39 14 -57 30 -18 17 -39 30 -48 30 -8 0 -24 7 -34 15 -11 8 -32 15 -47 15
-14 0 -32 7 -39 15 -7 8 -20 15 -29 15 -9 0 -25 7 -35 15 -11 8 -34 15 -52 15
-18 0 -34 4 -36 8 -7 16 -76 52 -101 52 -14 0 -28 4 -32 9 -3 5 -20 12 -38 16
-30 6 -70 18 -177 51 -25 8 -57 14 -71 14 -15 0 -40 7 -55 15 -16 8 -40 15
-54 15 -14 0 -43 7 -65 15 -22 8 -65 14 -95 15 -32 0 -63 7 -74 15 -11 8 -32
15 -47 15 -15 0 -40 7 -55 15 -16 8 -40 15 -54 15 -14 0 -43 7 -65 15 -22 8
-63 14 -91 15 -29 0 -65 7 -80 15 -16 8 -47 15 -70 15 -22 0 -45 5 -52 12 -6
6 -48 13 -94 16 -50 3 -88 10 -96 18 -7 8 -28 14 -46 14 -19 0 -50 7 -69 15
-20 8 -63 15 -96 15 -33 0 -71 7 -87 15 -16 8 -42 15 -57 15 -16 0 -35 7 -43
15 -9 8 -32 15 -53 15 -20 0 -42 5 -48 11 -6 6 -42 14 -80 16 -37 3 -77 12
-88 19 -11 8 -29 14 -41 14 -12 0 -35 7 -50 15 -16 8 -38 15 -49 15 -12 0 -60
20 -108 45 -48 25 -94 45 -101 45 -8 0 -19 7 -26 15 -7 8 -20 15 -30 15 -10 0
-23 7 -30 15 -7 8 -21 15 -32 15 -10 0 -21 7 -24 15 -4 8 -10 15 -15 15 -11 0
-17 4 -75 54 -23 20 -46 36 -52 36 -5 0 -12 7 -16 15 -3 8 -10 15 -15 15 -19
0 -191 180 -191 200 0 4 -13 23 -30 41 -16 19 -30 44 -30 55 0 12 -7 27 -15
34 -8 7 -15 17 -15 22 0 5 -12 26 -27 45 -26 33 -37 63 -63 166 -6 21 -14 45
-19 55 -35 67 -53 482 -26 609 8 42 15 89 15 107 0 17 7 40 15 50 8 11 15 31
15 45 1 14 7 37 15 51 8 14 14 36 15 49 0 13 14 43 30 68 17 24 30 51 30 59 0
7 4 14 10 14 5 0 13 12 16 28 4 15 10 29 14 32 12 10 50 78 50 91 1 8 14 25
30 39 17 13 30 29 30 35 0 7 18 26 40 44 22 17 42 42 45 54 4 13 16 27 28 32
12 6 26 20 32 33 5 12 17 22 25 22 9 0 43 27 78 60 34 33 66 60 72 60 5 0 10
4 10 9 0 5 25 21 55 36 30 16 55 32 55 37 0 4 8 8 19 8 10 0 24 7 31 15 7 8
19 15 27 15 7 0 16 6 19 14 3 8 16 17 30 20 13 4 24 11 24 16 0 6 12 10 26 10
14 0 38 6 52 13 70 36 98 46 227 78 22 6 44 14 49 20 6 5 26 9 46 9 19 0 51 5
70 11 19 5 94 16 165 24 72 8 166 19 210 25 56 7 107 8 170 0 50 -5 135 -15
190 -21 55 -5 128 -17 162 -25 34 -8 79 -14 100 -14 21 0 47 -7 57 -15 11 -8
30 -15 42 -15 12 0 38 -7 57 -15 20 -8 49 -15 65 -15 16 0 35 -7 42 -15 7 -8
23 -15 35 -15 13 0 25 -5 27 -10 2 -6 20 -13 42 -17 21 -3 49 -16 63 -29 14
-13 35 -26 46 -30 12 -4 27 -13 35 -20 7 -8 22 -14 32 -14 10 0 20 -7 24 -15
3 -8 14 -15 24 -15 11 0 25 -7 32 -15 7 -8 18 -15 24 -15 7 0 25 -13 41 -30
16 -16 35 -30 42 -30 19 0 337 -323 381 -387 6 -10 16 -28 22 -40 5 -13 14
-23 19 -23 5 0 11 -8 15 -17 3 -10 15 -31 26 -48 11 -16 25 -42 31 -57 6 -16
15 -28 20 -28 5 0 9 -9 9 -20 0 -21 36 -97 51 -106 5 -3 9 -13 9 -23 0 -10 7
-24 15 -31 8 -7 15 -22 15 -34 0 -11 7 -34 15 -50 8 -15 15 -36 15 -45 0 -10
7 -26 15 -37 8 -10 15 -33 15 -51 0 -18 6 -52 14 -75 8 -24 16 -62 19 -86 3
-23 11 -49 17 -57 24 -28 89 -17 183 31 16 8 39 14 53 14 28 0 124 40 124 52
0 4 11 8 25 8 14 0 28 7 31 15 4 10 19 15 43 15 21 0 46 7 57 15 10 8 29 15
40 15 12 0 27 7 34 15 8 9 29 15 56 15 24 0 49 6 58 15 8 8 24 15 35 15 11 0
26 7 35 15 8 8 23 15 33 15 11 0 28 7 39 15 10 8 30 15 44 15 14 0 38 7 54 15
15 8 36 15 45 15 10 0 26 7 37 15 10 8 33 15 50 15 16 0 39 7 50 15 10 8 31
15 45 15 14 0 33 8 42 18 21 23 22 102 3 145 -8 18 -17 50 -20 72 -3 22 -10
41 -16 43 -5 2 -10 14 -10 27 0 12 -7 28 -15 35 -8 7 -15 29 -15 49 0 21 -7
46 -15 57 -8 10 -15 31 -15 46 0 15 -6 31 -13 35 -8 4 -17 26 -20 48 -4 22
-11 41 -17 43 -5 2 -10 12 -10 22 0 11 -13 39 -30 63 -16 25 -30 50 -30 56 0
14 -42 95 -52 99 -4 2 -8 12 -8 21 0 10 -13 37 -30 59 -16 23 -30 48 -30 56 0
7 -7 19 -15 26 -8 7 -15 18 -15 24 -1 15 -36 56 -49 56 -6 0 -11 8 -11 18 0
10 -13 32 -29 50 -16 17 -32 41 -36 52 -3 11 -11 20 -16 20 -5 0 -9 6 -9 13 0
7 -13 24 -30 37 -16 14 -30 30 -30 35 0 6 -14 21 -30 35 -17 13 -30 30 -30 37
0 7 -20 33 -45 59 -25 25 -45 49 -45 55 0 5 -4 9 -9 9 -6 0 -56 45 -112 100
-56 55 -111 102 -121 106 -11 3 -38 24 -60 47 -38 40 -61 56 -105 76 -11 5
-24 15 -28 20 -3 6 -13 11 -20 11 -8 0 -28 14 -45 30 -17 17 -39 30 -49 30
-10 0 -21 7 -25 15 -3 8 -10 15 -16 15 -5 0 -29 14 -52 30 -22 17 -47 30 -55
30 -7 0 -32 14 -55 30 -22 17 -49 30 -60 30 -10 0 -37 12 -60 26 -23 15 -59
29 -80 31 -21 3 -38 9 -38 12 0 15 -149 81 -183 81 -14 0 -38 6 -54 14 -43 22
-131 46 -170 46 -19 0 -41 7 -49 15 -9 8 -30 15 -49 15 -18 0 -35 5 -37 11 -2
6 -28 14 -58 17 -30 2 -61 9 -68 15 -7 6 -64 13 -125 15 -62 2 -118 9 -126 15
-7 7 -68 15 -135 19 -66 4 -157 12 -201 17 -94 12 -380 11 -480 -1z"/>
</g>
</svg>
